<svg fill="none" height="100%" width="100%" viewBox="0 0 1080 1080" xmlns:xlink="http://www.w3.org/1999/xlink" xmlns="http://www.w3.org/2000/svg"><g display="none" id="i0"><animate repeatCount="indefinite" begin="0s" calcMode="discrete" dur="2s" values="none; inline; inline" keyTimes="0; 0.432917; 1" attributeName="display" /><animate repeatCount="indefinite" attributeName="opacity" dur="2s" begin="0s" fill="freeze" values="1; 1; 0.2; 0.268; 0.268" keyTimes="0; 0.433333; 0.933333; 0.991667; 1" keySplines="0 0 1 1; 0.333 0 0.833 1; 0.167 0 0.667 1; 0 0 1 1" calcMode="spline" /><g transform="translate(540,540)"><g transform="rotate(180)"><animateTransform repeatCount="indefinite" type="rotate" attributeName="transform" dur="2s" begin="0s" calcMode="spline" values="180; 180; 360; 363.875; 363.875" keyTimes="0; 0.433333; 0.933333; 0.991667; 1" keySplines="0 0 1 1; 0.32 0.94 0.86 0.977; 0.108 0.017 0.667 0.06; 0 0 1 1" fill="freeze" /><g transform="translate(63,-170)"><g><g transform="translate(-63,-153)"><g id="i1" transform="scale(1.986,1.986)"><animateTransform repeatCount="indefinite" type="scale" attributeName="transform" dur="2s" begin="0s" calcMode="spline" values="1.986 1.986; 1.986 1.986; 0.666 0.666; 0.694 0.694; 0.694 0.694" keyTimes="0; 0.433333; 0.933333; 0.991667; 1" keySplines="0 0 1 1; 0.32 0.94 0.86 0.977; 0.108 0.017 0.68 0.06; 0 0 1 1" fill="freeze" /><path fill="#206aff" d="M50,0C50,27.614,27.614,50,0,50C-27.614,50,-50,27.614,-50,0C-50,-27.614,-27.614,-50,0,-50C27.614,-50,50,-27.614,50,0Z" /></g></g></g></g></g></g></g><g display="none" id="i2"><animate repeatCount="indefinite" begin="0s" calcMode="discrete" dur="2s" values="none; inline; inline" keyTimes="0; 0.432917; 1" attributeName="display" /><animate repeatCount="indefinite" attributeName="opacity" dur="2s" begin="0s" fill="freeze" values="1; 1; 0.2; 0.384; 0.384" keyTimes="0; 0.375; 0.875; 0.991667; 1" keySplines="0 0 1 1; 0.333 0 0.833 1; 0.167 0 0.667 1; 0 0 1 1" calcMode="spline" /><g transform="translate(540,540)"><g transform="rotate(180)"><animateTransform repeatCount="indefinite" type="rotate" attributeName="transform" dur="2s" begin="0s" calcMode="spline" values="180; 180; 360; 370.714; 370.714" keyTimes="0; 0.375; 0.875; 0.991667; 1" keySplines="0 0 1 1; 0.32 0.94 0.86 0.977; 0.108 0.017 0.667 0.06; 0 0 1 1" fill="freeze" /><g transform="scale(1,1) translate(63,-170)"><g><g transform="translate(-63,-153)"><g id="i1" transform="scale(1.986,1.986)"><animateTransform repeatCount="indefinite" type="scale" attributeName="transform" dur="2s" begin="0s" calcMode="spline" values="1.986 1.986; 1.986 1.986; 0.666 0.666; 0.743 0.743; 0.743 0.743" keyTimes="0; 0.375; 0.875; 0.991667; 1" keySplines="0 0 1 1; 0.32 0.94 0.86 0.977; 0.108 0.017 0.68 0.06; 0 0 1 1" fill="freeze" /><path fill="#206aff" d="M50,0C50,27.614,27.614,50,0,50C-27.614,50,-50,27.614,-50,0C-50,-27.614,-27.614,-50,0,-50C27.614,-50,50,-27.614,50,0Z" /></g></g></g></g></g></g></g><g display="none" id="i3"><animate repeatCount="indefinite" begin="0s" calcMode="discrete" dur="2s" values="none; inline; inline" keyTimes="0; 0.432917; 1" attributeName="display" /><animate repeatCount="indefinite" attributeName="opacity" dur="2s" begin="0s" fill="freeze" values="1; 1; 0.2; 0.512; 0.512" keyTimes="0; 0.316667; 0.816666; 0.991667; 1" keySplines="0 0 1 1; 0.333 0 0.833 1; 0.167 0 0.667 1; 0 0 1 1" calcMode="spline" /><g transform="translate(540,540)"><g transform="rotate(180)"><animateTransform repeatCount="indefinite" type="rotate" attributeName="transform" dur="2s" begin="0s" calcMode="spline" values="180; 180; 360; 381.038; 381.038" keyTimes="0; 0.316667; 0.816666; 0.991667; 1" keySplines="0 0 1 1; 0.32 0.94 0.86 0.977; 0.108 0.017 0.667 0.06; 0 0 1 1" fill="freeze" /><g transform="translate(63,-170)"><g><g transform="translate(-63,-153)"><g id="i1" transform="scale(1.986,1.986)"><animateTransform repeatCount="indefinite" type="scale" attributeName="transform" dur="2s" begin="0s" calcMode="spline" values="1.986 1.986; 1.986 1.986; 0.666 0.666; 0.817 0.817; 0.817 0.817" keyTimes="0; 0.316667; 0.816666; 0.991667; 1" keySplines="0 0 1 1; 0.32 0.94 0.86 0.977; 0.108 0.017 0.68 0.06; 0 0 1 1" fill="freeze" /><path fill="#206aff" d="M50,0C50,27.614,27.614,50,0,50C-27.614,50,-50,27.614,-50,0C-50,-27.614,-27.614,-50,0,-50C27.614,-50,50,-27.614,50,0Z" /></g></g></g></g></g></g></g><g display="none" id="i4"><animate repeatCount="indefinite" begin="0s" calcMode="discrete" dur="2s" values="none; inline; inline" keyTimes="0; 0.432917; 1" attributeName="display" /><animate repeatCount="indefinite" attributeName="opacity" dur="2s" begin="0s" fill="freeze" values="1; 1; 0.2; 0.657; 0.657" keyTimes="0; 0.25; 0.75; 0.991667; 1" keySplines="0 0 1 1; 0.333 0 0.833 1; 0.167 0 0.667 1; 0 0 1 1" calcMode="spline" /><g transform="translate(540,540)"><g transform="rotate(180)"><animateTransform repeatCount="indefinite" type="rotate" attributeName="transform" dur="2s" begin="0s" calcMode="spline" values="180; 180; 360; 397.752; 397.752" keyTimes="0; 0.25; 0.75; 0.991667; 1" keySplines="0 0 1 1; 0.32 0.94 0.86 0.977; 0.108 0.017 0.667 0.06; 0 0 1 1" fill="freeze" /><g transform="scale(1,1) translate(63,-170)"><g><g transform="translate(-63,-153)"><g id="i1" transform="scale(1.986,1.986)"><animateTransform repeatCount="indefinite" type="scale" attributeName="transform" dur="2s" begin="0s" calcMode="spline" values="1.986 1.986; 1.986 1.986; 0.666 0.666; 0.937 0.937; 0.937 0.937" keyTimes="0; 0.25; 0.75; 0.991667; 1" keySplines="0 0 1 1; 0.32 0.94 0.86 0.977; 0.108 0.017 0.68 0.06; 0 0 1 1" fill="freeze" /><path fill="#206aff" d="M50,0C50,27.614,27.614,50,0,50C-27.614,50,-50,27.614,-50,0C-50,-27.614,-27.614,-50,0,-50C27.614,-50,50,-27.614,50,0Z" /></g></g></g></g></g></g></g><g display="none" id="i5"><animate repeatCount="indefinite" begin="0s" calcMode="discrete" dur="2s" values="none; inline; inline" keyTimes="0; 0.432917; 1" attributeName="display" /><animate repeatCount="indefinite" attributeName="opacity" dur="2s" begin="0s" fill="freeze" values="1; 1; 0.2; 0.774; 0.774" keyTimes="0; 0.191667; 0.691666; 0.991667; 1" keySplines="0 0 1 1; 0.333 0 0.833 1; 0.167 0 0.667 1; 0 0 1 1" calcMode="spline" /><g transform="translate(540,540)"><g transform="rotate(180)"><animateTransform repeatCount="indefinite" type="rotate" attributeName="transform" dur="2s" begin="0s" calcMode="spline" values="180; 180; 360; 417.554; 417.554" keyTimes="0; 0.191666; 0.691666; 0.991667; 1" keySplines="0 0 1 1; 0.32 0.94 0.86 0.977; 0.108 0.017 0.667 0.06; 0 0 1 1" fill="freeze" /><g transform="translate(63,-170)"><g><g transform="translate(-63,-153)"><g id="i1" transform="scale(1.986,1.986)"><animateTransform repeatCount="indefinite" type="scale" attributeName="transform" dur="2s" begin="0s" calcMode="spline" values="1.986 1.986; 1.986 1.986; 0.666 0.666; 1.08 1.08; 1.08 1.08" keyTimes="0; 0.191666; 0.691666; 0.991667; 1" keySplines="0 0 1 1; 0.32 0.94 0.86 0.977; 0.108 0.017 0.68 0.06; 0 0 1 1" fill="freeze" /><path fill="#206aff" d="M50,0C50,27.614,27.614,50,0,50C-27.614,50,-50,27.614,-50,0C-50,-27.614,-27.614,-50,0,-50C27.614,-50,50,-27.614,50,0Z" /></g></g></g></g></g></g></g><g display="none" id="i6"><animate repeatCount="indefinite" begin="0s" calcMode="discrete" dur="2s" values="none; inline; inline" keyTimes="0; 0.432917; 1" attributeName="display" /><animate repeatCount="indefinite" attributeName="opacity" dur="2s" begin="0s" fill="freeze" values="1; 1; 0.2; 0.902; 0.902" keyTimes="0; 0.116667; 0.616666; 0.991667; 1" keySplines="0 0 1 1; 0.333 0 0.833 1; 0.167 0 0.667 1; 0 0 1 1" calcMode="spline" /><g transform="translate(540,540)"><g transform="rotate(180)"><animateTransform repeatCount="indefinite" type="rotate" attributeName="transform" dur="2s" begin="0s" calcMode="spline" values="180; 180; 360; 452.269; 452.269" keyTimes="0; 0.116667; 0.616666; 0.991667; 1" keySplines="0 0 1 1; 0.32 0.94 0.86 0.977; 0.108 0.017 0.667 0.06; 0 0 1 1" fill="freeze" /><g transform="translate(63,-170)"><g><g transform="translate(-63,-153)"><g id="i1" transform="scale(1.986,1.986)"><animateTransform repeatCount="indefinite" type="scale" attributeName="transform" dur="2s" begin="0s" calcMode="spline" values="1.986 1.986; 1.986 1.986; 0.666 0.666; 1.332 1.332; 1.332 1.332" keyTimes="0; 0.116667; 0.616666; 0.991667; 1" keySplines="0 0 1 1; 0.32 0.94 0.86 0.977; 0.108 0.017 0.68 0.06; 0 0 1 1" fill="freeze" /><path fill="#206aff" d="M50,0C50,27.614,27.614,50,0,50C-27.614,50,-50,27.614,-50,0C-50,-27.614,-27.614,-50,0,-50C27.614,-50,50,-27.614,50,0Z" /></g></g></g></g></g></g></g><g display="none" id="i7"><animate repeatCount="indefinite" begin="0s" calcMode="discrete" dur="2s" values="none; inline; inline" keyTimes="0; 0.432917; 1" attributeName="display" /><animate repeatCount="indefinite" attributeName="opacity" dur="2s" begin="0s" fill="freeze" values="1; 0.2; 1; 1; 1" keyTimes="0; 0.5; 0.991658; 0.991667; 1" keySplines="0.333 0 0.833 1; 0.167 0 0.667 1; 0.333 0 0.833 1; 0 0 1 1" calcMode="spline" /><g transform="translate(540,540)"><g transform="rotate(180)"><animateTransform repeatCount="indefinite" type="rotate" attributeName="transform" dur="2s" begin="0s" calcMode="spline" values="180; 360; 540; 540.008; 540.008" keyTimes="0; 0.5; 0.991658; 0.991667; 1" keySplines="0.32 0.94 0.86 0.977; 0.108 0.017 0.667 0.06; 0.32 0.94 0.86 0.977; 0 0 1 1" fill="freeze" /><g transform="scale(1,1) translate(63,-170)"><g><g transform="translate(-63,-153)"><g id="i1" transform="scale(1.986,1.986)"><animateTransform repeatCount="indefinite" type="scale" attributeName="transform" dur="2s" begin="0s" calcMode="spline" values="1.986 1.986; 0.666 0.666; 1.986 1.986; 1.986 1.986; 1.986 1.986" keyTimes="0; 0.5; 0.991658; 0.991667; 1" keySplines="0.32 0.94 0.86 0.977; 0.108 0.017 0.68 0.06; 0.26 0.929 0.86 0.977; 0 0 1 1" fill="freeze" /><path fill="#206aff" d="M50,0C50,27.614,27.614,50,0,50C-27.614,50,-50,27.614,-50,0C-50,-27.614,-27.614,-50,0,-50C27.614,-50,50,-27.614,50,0Z" /></g></g></g></g></g></g></g><g transform="matrix(1,0,0,1,540,540)" display="none" id="i8"><animate repeatCount="indefinite" begin="0s" calcMode="discrete" dur="2s" values="none; inline; inline" keyTimes="0; 0.432917; 1" attributeName="display" /><ellipse ry="80" rx="80" cy="0" cx="0" /></g></svg>